<mxfile host="app.diagrams.net" modified="2020-10-16T03:35:15.956Z" agent="5.0 (Windows)" etag="6RCf_syWoi-4fAeLQpvD" version="13.8.0" type="github">
  <diagram id="HCSsMY1fox_DIpHiyKUl" name="Page-1">
    <mxGraphModel dx="868" dy="1648" grid="1" gridSize="10" guides="1" tooltips="1" connect="1" arrows="1" fold="1" page="1" pageScale="1" pageWidth="827" pageHeight="1169" background="#ffffff" math="0" shadow="0">
      <root>
        <mxCell id="0" />
        <mxCell id="1" parent="0" />
        <mxCell id="HNMy4ISQY_406ZQvRQbY-1" value="" style="strokeWidth=2;html=1;shape=mxgraph.flowchart.start_2;whiteSpace=wrap;" parent="1" vertex="1">
          <mxGeometry x="364" y="-10" width="100" height="100" as="geometry" />
        </mxCell>
        <mxCell id="HNMy4ISQY_406ZQvRQbY-2" value="&lt;div style=&quot;font-size: 19px;&quot;&gt;Start&lt;/div&gt;" style="text;html=1;strokeColor=none;fillColor=none;align=center;verticalAlign=middle;whiteSpace=wrap;rounded=0;fontSize=19;" parent="1" vertex="1">
          <mxGeometry x="394" y="20" width="46" height="40" as="geometry" />
        </mxCell>
        <mxCell id="HNMy4ISQY_406ZQvRQbY-4" value="" style="shape=flexArrow;endArrow=classic;html=1;fontSize=19;" parent="1" edge="1">
          <mxGeometry width="50" height="50" relative="1" as="geometry">
            <mxPoint x="416.5" y="90" as="sourcePoint" />
            <mxPoint x="416.5" y="170" as="targetPoint" />
            <Array as="points">
              <mxPoint x="416.5" y="110" />
              <mxPoint x="416.5" y="130" />
            </Array>
          </mxGeometry>
        </mxCell>
        <mxCell id="HNMy4ISQY_406ZQvRQbY-12" value="&lt;div&gt;Home&lt;/div&gt;" style="strokeWidth=2;html=1;shape=mxgraph.flowchart.start_1;whiteSpace=wrap;fontSize=19;" parent="1" vertex="1">
          <mxGeometry x="367" y="170" width="100" height="60" as="geometry" />
        </mxCell>
        <mxCell id="HNMy4ISQY_406ZQvRQbY-13" value="" style="shape=flexArrow;endArrow=classic;html=1;fontSize=19;entryX=0.5;entryY=0;entryDx=0;entryDy=0;entryPerimeter=0;" parent="1" target="HNMy4ISQY_406ZQvRQbY-45" edge="1">
          <mxGeometry width="50" height="50" relative="1" as="geometry">
            <mxPoint x="414" y="230" as="sourcePoint" />
            <mxPoint x="416.5" y="310" as="targetPoint" />
          </mxGeometry>
        </mxCell>
        <mxCell id="HNMy4ISQY_406ZQvRQbY-15" value="" style="strokeWidth=2;html=1;shape=mxgraph.flowchart.annotation_2;align=left;labelPosition=right;pointerEvents=1;fontSize=19;rotation=90;" parent="1" vertex="1">
          <mxGeometry x="373.13" y="115.13" width="86.5" height="596.25" as="geometry" />
        </mxCell>
        <mxCell id="HNMy4ISQY_406ZQvRQbY-69" value="" style="edgeStyle=orthogonalEdgeStyle;rounded=0;orthogonalLoop=1;jettySize=auto;html=1;strokeWidth=3;fontSize=19;" parent="1" source="HNMy4ISQY_406ZQvRQbY-16" target="HNMy4ISQY_406ZQvRQbY-18" edge="1">
          <mxGeometry relative="1" as="geometry" />
        </mxCell>
        <mxCell id="HNMy4ISQY_406ZQvRQbY-16" value="Menu" style="strokeWidth=2;html=1;shape=mxgraph.flowchart.start_1;whiteSpace=wrap;fontSize=19;" parent="1" vertex="1">
          <mxGeometry x="70" y="455" width="100" height="60" as="geometry" />
        </mxCell>
        <mxCell id="HNMy4ISQY_406ZQvRQbY-70" value="" style="edgeStyle=orthogonalEdgeStyle;rounded=0;orthogonalLoop=1;jettySize=auto;html=1;strokeWidth=3;fontSize=19;" parent="1" source="HNMy4ISQY_406ZQvRQbY-18" target="HNMy4ISQY_406ZQvRQbY-25" edge="1">
          <mxGeometry relative="1" as="geometry" />
        </mxCell>
        <mxCell id="HNMy4ISQY_406ZQvRQbY-18" value="View Menu" style="strokeWidth=2;html=1;shape=mxgraph.flowchart.start_1;whiteSpace=wrap;fontSize=19;" parent="1" vertex="1">
          <mxGeometry x="70" y="575" width="100" height="60" as="geometry" />
        </mxCell>
        <mxCell id="HNMy4ISQY_406ZQvRQbY-75" value="" style="edgeStyle=orthogonalEdgeStyle;rounded=0;orthogonalLoop=1;jettySize=auto;html=1;strokeWidth=3;fontSize=19;" parent="1" source="HNMy4ISQY_406ZQvRQbY-22" target="HNMy4ISQY_406ZQvRQbY-30" edge="1">
          <mxGeometry relative="1" as="geometry" />
        </mxCell>
        <mxCell id="HNMy4ISQY_406ZQvRQbY-22" value="Reservation" style="strokeWidth=2;html=1;shape=mxgraph.flowchart.start_1;whiteSpace=wrap;fontSize=19;" parent="1" vertex="1">
          <mxGeometry x="660" y="455" width="110" height="60" as="geometry" />
        </mxCell>
        <mxCell id="HNMy4ISQY_406ZQvRQbY-71" value="" style="edgeStyle=orthogonalEdgeStyle;rounded=0;orthogonalLoop=1;jettySize=auto;html=1;strokeWidth=3;fontSize=19;" parent="1" source="HNMy4ISQY_406ZQvRQbY-25" target="HNMy4ISQY_406ZQvRQbY-32" edge="1">
          <mxGeometry relative="1" as="geometry" />
        </mxCell>
        <mxCell id="HNMy4ISQY_406ZQvRQbY-25" value="&lt;div&gt;Select&lt;/div&gt;&lt;div&gt;Category&lt;br&gt;&lt;/div&gt;" style="strokeWidth=2;html=1;shape=mxgraph.flowchart.start_1;whiteSpace=wrap;fontSize=19;" parent="1" vertex="1">
          <mxGeometry x="65" y="695" width="110" height="60" as="geometry" />
        </mxCell>
        <mxCell id="HNMy4ISQY_406ZQvRQbY-73" value="" style="edgeStyle=orthogonalEdgeStyle;rounded=0;orthogonalLoop=1;jettySize=auto;html=1;strokeWidth=3;fontSize=19;" parent="1" source="HNMy4ISQY_406ZQvRQbY-26" target="HNMy4ISQY_406ZQvRQbY-35" edge="1">
          <mxGeometry relative="1" as="geometry" />
        </mxCell>
        <mxCell id="HNMy4ISQY_406ZQvRQbY-26" value="My Cart" style="strokeWidth=2;html=1;shape=mxgraph.flowchart.start_1;whiteSpace=wrap;fontSize=19;" parent="1" vertex="1">
          <mxGeometry x="364" y="455" width="100" height="60" as="geometry" />
        </mxCell>
        <mxCell id="HNMy4ISQY_406ZQvRQbY-27" value="" style="endArrow=none;html=1;fontSize=19;strokeWidth=3;" parent="1" edge="1">
          <mxGeometry width="50" height="50" relative="1" as="geometry">
            <mxPoint x="417" y="452" as="sourcePoint" />
            <mxPoint x="416.6470588235294" y="401" as="targetPoint" />
          </mxGeometry>
        </mxCell>
        <mxCell id="HNMy4ISQY_406ZQvRQbY-76" value="" style="edgeStyle=orthogonalEdgeStyle;rounded=0;orthogonalLoop=1;jettySize=auto;html=1;strokeWidth=3;fontSize=19;" parent="1" source="HNMy4ISQY_406ZQvRQbY-30" target="HNMy4ISQY_406ZQvRQbY-42" edge="1">
          <mxGeometry relative="1" as="geometry" />
        </mxCell>
        <mxCell id="HNMy4ISQY_406ZQvRQbY-30" value="Date/Time" style="strokeWidth=2;html=1;shape=mxgraph.flowchart.start_1;whiteSpace=wrap;fontSize=19;" parent="1" vertex="1">
          <mxGeometry x="665" y="575" width="100" height="60" as="geometry" />
        </mxCell>
        <mxCell id="HNMy4ISQY_406ZQvRQbY-72" value="" style="edgeStyle=orthogonalEdgeStyle;rounded=0;orthogonalLoop=1;jettySize=auto;html=1;strokeWidth=3;fontSize=19;" parent="1" source="HNMy4ISQY_406ZQvRQbY-32" target="HNMy4ISQY_406ZQvRQbY-36" edge="1">
          <mxGeometry relative="1" as="geometry" />
        </mxCell>
        <mxCell id="HNMy4ISQY_406ZQvRQbY-32" value="View Selected Choice" style="strokeWidth=2;html=1;shape=mxgraph.flowchart.start_1;whiteSpace=wrap;fontSize=19;" parent="1" vertex="1">
          <mxGeometry x="62.5" y="815" width="115" height="70" as="geometry" />
        </mxCell>
        <mxCell id="HNMy4ISQY_406ZQvRQbY-74" value="" style="edgeStyle=orthogonalEdgeStyle;rounded=0;orthogonalLoop=1;jettySize=auto;html=1;strokeWidth=3;fontSize=19;" parent="1" source="HNMy4ISQY_406ZQvRQbY-35" target="HNMy4ISQY_406ZQvRQbY-67" edge="1">
          <mxGeometry relative="1" as="geometry" />
        </mxCell>
        <mxCell id="HNMy4ISQY_406ZQvRQbY-35" value="Review Cart" style="strokeWidth=2;html=1;shape=mxgraph.flowchart.start_1;whiteSpace=wrap;fontSize=19;" parent="1" vertex="1">
          <mxGeometry x="364.63" y="563" width="100" height="60" as="geometry" />
        </mxCell>
        <mxCell id="HNMy4ISQY_406ZQvRQbY-36" value="&lt;div&gt;Add to &lt;br&gt;&lt;/div&gt;&lt;div&gt;Cart&lt;br&gt;&lt;/div&gt;" style="strokeWidth=2;html=1;shape=mxgraph.flowchart.start_1;whiteSpace=wrap;fontSize=19;" parent="1" vertex="1">
          <mxGeometry x="70" y="944" width="100" height="60" as="geometry" />
        </mxCell>
        <mxCell id="HNMy4ISQY_406ZQvRQbY-41" value="" style="shape=flexArrow;endArrow=classic;html=1;strokeWidth=3;fontSize=19;exitX=1;exitY=0.5;exitDx=0;exitDy=0;exitPerimeter=0;" parent="1" edge="1">
          <mxGeometry width="50" height="50" relative="1" as="geometry">
            <mxPoint x="170" y="975" as="sourcePoint" />
            <mxPoint x="360" y="485" as="targetPoint" />
            <Array as="points">
              <mxPoint x="250" y="965" />
              <mxPoint x="240" y="705" />
              <mxPoint x="230" y="485" />
            </Array>
          </mxGeometry>
        </mxCell>
        <mxCell id="bTdxcH28xhg-WLb5-dVF-2" value="" style="edgeStyle=orthogonalEdgeStyle;rounded=0;orthogonalLoop=1;jettySize=auto;html=1;" edge="1" parent="1" source="HNMy4ISQY_406ZQvRQbY-42" target="bTdxcH28xhg-WLb5-dVF-1">
          <mxGeometry relative="1" as="geometry" />
        </mxCell>
        <mxCell id="HNMy4ISQY_406ZQvRQbY-42" value="Venue" style="strokeWidth=2;html=1;shape=mxgraph.flowchart.start_1;whiteSpace=wrap;fontSize=19;" parent="1" vertex="1">
          <mxGeometry x="665" y="715" width="100" height="60" as="geometry" />
        </mxCell>
        <mxCell id="HNMy4ISQY_406ZQvRQbY-80" value="" style="edgeStyle=orthogonalEdgeStyle;rounded=0;orthogonalLoop=1;jettySize=auto;html=1;strokeWidth=3;fontSize=19;" parent="1" source="HNMy4ISQY_406ZQvRQbY-43" target="HNMy4ISQY_406ZQvRQbY-61" edge="1">
          <mxGeometry relative="1" as="geometry" />
        </mxCell>
        <mxCell id="HNMy4ISQY_406ZQvRQbY-43" value="People" style="strokeWidth=2;html=1;shape=mxgraph.flowchart.start_1;whiteSpace=wrap;fontSize=19;" parent="1" vertex="1">
          <mxGeometry x="665" y="914" width="100" height="60" as="geometry" />
        </mxCell>
        <mxCell id="HNMy4ISQY_406ZQvRQbY-45" value="Login" style="strokeWidth=2;html=1;shape=mxgraph.flowchart.decision;whiteSpace=wrap;fontSize=19;" parent="1" vertex="1">
          <mxGeometry x="364" y="300" width="100" height="70" as="geometry" />
        </mxCell>
        <mxCell id="HNMy4ISQY_406ZQvRQbY-47" value="Yes" style="text;html=1;align=center;verticalAlign=middle;resizable=0;points=[];autosize=1;fontSize=19;rotation=1;" parent="1" vertex="1">
          <mxGeometry x="407" y="366" width="50" height="30" as="geometry" />
        </mxCell>
        <mxCell id="HNMy4ISQY_406ZQvRQbY-48" value="" style="shape=flexArrow;endArrow=classic;html=1;strokeWidth=3;fontSize=19;exitX=1;exitY=0.5;exitDx=0;exitDy=0;exitPerimeter=0;" parent="1" source="HNMy4ISQY_406ZQvRQbY-45" edge="1">
          <mxGeometry width="50" height="50" relative="1" as="geometry">
            <mxPoint x="464" y="340" as="sourcePoint" />
            <mxPoint x="550" y="335" as="targetPoint" />
          </mxGeometry>
        </mxCell>
        <mxCell id="HNMy4ISQY_406ZQvRQbY-49" value="Sign In" style="strokeWidth=2;html=1;shape=mxgraph.flowchart.start_1;whiteSpace=wrap;fontSize=19;" parent="1" vertex="1">
          <mxGeometry x="550" y="310" width="100" height="60" as="geometry" />
        </mxCell>
        <mxCell id="HNMy4ISQY_406ZQvRQbY-50" value="No" style="text;html=1;align=center;verticalAlign=middle;resizable=0;points=[];autosize=1;fontSize=19;" parent="1" vertex="1">
          <mxGeometry x="474" y="298" width="40" height="30" as="geometry" />
        </mxCell>
        <mxCell id="HNMy4ISQY_406ZQvRQbY-81" value="" style="edgeStyle=orthogonalEdgeStyle;rounded=0;orthogonalLoop=1;jettySize=auto;html=1;strokeWidth=3;fontSize=19;" parent="1" source="HNMy4ISQY_406ZQvRQbY-61" target="HNMy4ISQY_406ZQvRQbY-63" edge="1">
          <mxGeometry relative="1" as="geometry" />
        </mxCell>
        <mxCell id="HNMy4ISQY_406ZQvRQbY-61" value="Review Choices" style="strokeWidth=2;html=1;shape=mxgraph.flowchart.start_1;whiteSpace=wrap;fontSize=19;" parent="1" vertex="1">
          <mxGeometry x="665" y="1017" width="100" height="60" as="geometry" />
        </mxCell>
        <mxCell id="HNMy4ISQY_406ZQvRQbY-63" value="Add to cart" style="strokeWidth=2;html=1;shape=mxgraph.flowchart.start_1;whiteSpace=wrap;fontSize=19;" parent="1" vertex="1">
          <mxGeometry x="530" y="1016" width="100" height="60" as="geometry" />
        </mxCell>
        <mxCell id="HNMy4ISQY_406ZQvRQbY-65" value="" style="shape=flexArrow;endArrow=classic;html=1;strokeWidth=3;fontSize=19;exitX=0.631;exitY=0.026;exitDx=0;exitDy=0;exitPerimeter=0;entryX=1;entryY=0.5;entryDx=0;entryDy=0;entryPerimeter=0;" parent="1" source="HNMy4ISQY_406ZQvRQbY-63" target="HNMy4ISQY_406ZQvRQbY-26" edge="1">
          <mxGeometry width="50" height="50" relative="1" as="geometry">
            <mxPoint x="380" y="760" as="sourcePoint" />
            <mxPoint x="460" y="490" as="targetPoint" />
            <Array as="points">
              <mxPoint x="550" y="485" />
            </Array>
          </mxGeometry>
        </mxCell>
        <mxCell id="HNMy4ISQY_406ZQvRQbY-83" value="" style="edgeStyle=orthogonalEdgeStyle;rounded=0;orthogonalLoop=1;jettySize=auto;html=1;strokeWidth=3;fontSize=19;" parent="1" source="HNMy4ISQY_406ZQvRQbY-67" target="HNMy4ISQY_406ZQvRQbY-82" edge="1">
          <mxGeometry relative="1" as="geometry" />
        </mxCell>
        <mxCell id="HNMy4ISQY_406ZQvRQbY-67" value="Proceed Checout" style="strokeWidth=2;html=1;shape=mxgraph.flowchart.start_1;whiteSpace=wrap;fontSize=19;" parent="1" vertex="1">
          <mxGeometry x="360.88" y="668.38" width="107" height="55" as="geometry" />
        </mxCell>
        <mxCell id="HNMy4ISQY_406ZQvRQbY-85" value="" style="edgeStyle=orthogonalEdgeStyle;rounded=0;orthogonalLoop=1;jettySize=auto;html=1;strokeWidth=3;fontSize=19;" parent="1" source="HNMy4ISQY_406ZQvRQbY-82" target="HNMy4ISQY_406ZQvRQbY-84" edge="1">
          <mxGeometry relative="1" as="geometry" />
        </mxCell>
        <mxCell id="HNMy4ISQY_406ZQvRQbY-82" value="Payment Information" style="strokeWidth=2;html=1;shape=mxgraph.flowchart.start_1;whiteSpace=wrap;fontSize=19;" parent="1" vertex="1">
          <mxGeometry x="360.88" y="755.38" width="107" height="55" as="geometry" />
        </mxCell>
        <mxCell id="HNMy4ISQY_406ZQvRQbY-87" value="" style="edgeStyle=orthogonalEdgeStyle;rounded=0;orthogonalLoop=1;jettySize=auto;html=1;strokeWidth=3;fontSize=19;" parent="1" source="HNMy4ISQY_406ZQvRQbY-84" target="HNMy4ISQY_406ZQvRQbY-86" edge="1">
          <mxGeometry relative="1" as="geometry" />
        </mxCell>
        <mxCell id="HNMy4ISQY_406ZQvRQbY-84" value="Review Order" style="strokeWidth=2;html=1;shape=mxgraph.flowchart.start_1;whiteSpace=wrap;fontSize=19;" parent="1" vertex="1">
          <mxGeometry x="360.88" y="850" width="107" height="55" as="geometry" />
        </mxCell>
        <mxCell id="HNMy4ISQY_406ZQvRQbY-89" value="" style="edgeStyle=orthogonalEdgeStyle;rounded=0;orthogonalLoop=1;jettySize=auto;html=1;strokeWidth=3;fontSize=19;" parent="1" source="HNMy4ISQY_406ZQvRQbY-86" target="HNMy4ISQY_406ZQvRQbY-88" edge="1">
          <mxGeometry relative="1" as="geometry" />
        </mxCell>
        <mxCell id="HNMy4ISQY_406ZQvRQbY-86" value="Checkout" style="strokeWidth=2;html=1;shape=mxgraph.flowchart.start_1;whiteSpace=wrap;fontSize=19;" parent="1" vertex="1">
          <mxGeometry x="360" y="940" width="107" height="55" as="geometry" />
        </mxCell>
        <mxCell id="HNMy4ISQY_406ZQvRQbY-91" value="" style="edgeStyle=orthogonalEdgeStyle;rounded=0;orthogonalLoop=1;jettySize=auto;html=1;strokeWidth=3;fontSize=19;" parent="1" source="HNMy4ISQY_406ZQvRQbY-88" target="HNMy4ISQY_406ZQvRQbY-90" edge="1">
          <mxGeometry relative="1" as="geometry" />
        </mxCell>
        <mxCell id="HNMy4ISQY_406ZQvRQbY-88" value="Order Confirmed" style="strokeWidth=2;html=1;shape=mxgraph.flowchart.start_1;whiteSpace=wrap;fontSize=19;" parent="1" vertex="1">
          <mxGeometry x="360" y="1030" width="107" height="55" as="geometry" />
        </mxCell>
        <mxCell id="HNMy4ISQY_406ZQvRQbY-90" value="End" style="strokeWidth=2;html=1;shape=mxgraph.flowchart.start_1;whiteSpace=wrap;fontSize=19;" parent="1" vertex="1">
          <mxGeometry x="173" y="1030" width="107" height="55" as="geometry" />
        </mxCell>
        <mxCell id="bTdxcH28xhg-WLb5-dVF-3" value="" style="edgeStyle=orthogonalEdgeStyle;rounded=0;orthogonalLoop=1;jettySize=auto;html=1;" edge="1" parent="1" source="bTdxcH28xhg-WLb5-dVF-1" target="HNMy4ISQY_406ZQvRQbY-43">
          <mxGeometry relative="1" as="geometry" />
        </mxCell>
        <mxCell id="bTdxcH28xhg-WLb5-dVF-1" value="&lt;div&gt;Venue&lt;/div&gt;&lt;div&gt;Theme&lt;br&gt;&lt;/div&gt;" style="strokeWidth=2;html=1;shape=mxgraph.flowchart.start_1;whiteSpace=wrap;fontSize=19;" vertex="1" parent="1">
          <mxGeometry x="652.5" y="800" width="125" height="70" as="geometry" />
        </mxCell>
      </root>
    </mxGraphModel>
  </diagram>
</mxfile>
